<?xml version="1.0" encoding="UTF-8"?>
<svg xmlns="http://www.w3.org/2000/svg" version="1.1" xmlns:xlink="http://www.w3.org/1999/xlink" width="2000" height="750" viewBox="0 0 2000 750">
<svg xml:space="preserve" width="1500" height="562.5" data-version="2" data-id="lg_f6hPVmt3edOt406rym" viewBox="0 0 794 242" x="250" y="187.5">
<rect width="100%" height="100%" fill="transparent"></rect><path fill="#2b4c1c" d="M434.759 100.69h-25.22l-39.99-40.06h-12.51V42.72h12.51l39.99-40.05h25.22l-50.38 49.01Zm-84.83 0h-17.78V2.67h17.78Z"></path><rect width="102.61" height="98.02" x="-51.3" y="-49.01" fill="none" rx="0" ry="0" transform="translate(383.95 52.18)"></rect><path fill="#2b4c1c" d="M519.589 76.22q0 3.69-1.29 7.96-1.3 4.28-4.21 7.93-2.9 3.66-7.59 6.12-4.68 2.46-11.38 2.46h-32.06q-3.69 0-7.96-1.3-4.28-1.29-7.93-4.2-3.66-2.9-6.12-7.59-2.46-4.68-2.46-11.38 0-3.69 1.3-8 1.3-4.3 4.2-7.96 2.91-3.66 7.59-6.12t11.38-2.46h32.06v16.95h-32.06q-3.62 0-5.6 2.22-1.99 2.23-1.99 5.51 0 3.48 2.29 5.43 2.29 1.95 5.44 1.95h31.92q3.62 0 5.61-2.19 1.98-2.18 1.98-5.47V51.27q0-3.49-2.15-5.54-2.16-2.05-5.44-2.05h-39.03V26.8h39.03q3.69 0 7.97 1.3 4.27 1.29 7.93 4.2 3.65 2.91 6.11 7.59 2.46 4.68 2.46 11.38Z"></path><rect width="81" height="73.89" x="-40.5" y="-36.95" fill="none" rx="0" ry="0" transform="translate(479.59 64.25)"></rect><path fill="#2b4c1c" d="M600.739 100.69h-17.78V51.68q0-3.49-1.84-5.3-1.85-1.81-5.47-1.81h-23.11v56.12h-17.77V35.62q0-1.85.68-3.46.69-1.6 1.92-2.8 1.23-1.2 2.87-1.88 1.64-.68 3.49-.68h32.06q3.69 0 7.93 1.3 4.23 1.29 8.06 4.17V26.8h24.06q2.53 0 5.34.58 2.8.58 5.57 1.81 2.77 1.23 5.3 3.18 2.52 1.95 4.44 4.72 1.91 2.76 3.08 6.39 1.16 3.62 1.16 8.2v49.01h-17.78V51.68q0-3.49-1.74-5.3-1.74-1.81-5.37-1.81h-15.99q.89 3.28.89 7.11Z"></path><rect width="105.96" height="73.89" x="-52.98" y="-36.95" fill="none" rx="0" ry="0" transform="translate(588.25 64.25)"></rect><path fill="#2b4c1c" d="M738.549 75.74q0 4.58-1.16 8.24t-3.08 6.43q-1.91 2.76-4.44 4.71-2.53 1.95-5.3 3.18-2.77 1.23-5.57 1.81-2.8.58-5.33.58h-32.06V82.92h32.06q3.55 0 5.33-1.85 1.78-1.84 1.78-5.33V51.82q0-3.69-1.82-5.47-1.81-1.78-5.29-1.78h-31.93q-3.62 0-5.47 1.81-1.84 1.81-1.84 5.3v72.12h-17.77V51.68q0-4.58 1.16-8.2 1.16-3.63 3.11-6.39 1.95-2.77 4.48-4.72 2.52-1.95 5.29-3.18 2.77-1.23 5.61-1.81 2.84-.58 5.3-.58h32.06q4.58 0 8.2 1.16 3.62 1.16 6.39 3.08 2.77 1.91 4.72 4.44 1.95 2.53 3.18 5.3 1.23 2.77 1.81 5.57.58 2.8.58 5.33Z"></path><rect width="81.89" height="97" x="-40.95" y="-48.5" fill="none" rx="0" ry="0" transform="translate(698.1 75.8)"></rect><path fill="#2b4c1c" d="M426.219 209.48q0 5.26-1.34 9.47-1.33 4.2-3.52 7.41-2.19 3.22-5.12 5.47-2.94 2.26-6.09 3.69-3.14 1.44-6.39 2.12-3.25.69-6.12.69h-68.56v-17.78h68.56q5.13 0 7.97-3 2.83-3.01 2.83-8.07 0-2.46-.75-4.51t-2.15-3.56q-1.4-1.5-3.42-2.32-2.02-.82-4.48-.82h-40.88q-4.3 0-9.29-1.54-4.99-1.54-9.27-4.96-4.27-3.41-7.11-8.95-2.83-5.54-2.83-13.54 0-7.99 2.83-13.5 2.84-5.5 7.11-8.95 4.28-3.45 9.27-4.99 4.99-1.54 9.29-1.54h60.5v17.77h-60.5q-5.06 0-7.89 3.08-2.84 3.08-2.84 8.13 0 5.13 2.84 8.11 2.83 2.97 7.89 2.97h41.02q2.87.07 6.08.78 3.21.72 6.39 2.23 3.18 1.5 6.05 3.79 2.87 2.29 5.1 5.5 2.22 3.22 3.52 7.39 1.3 4.17 1.3 9.43"></path><rect width="97.96" height="98.03" x="-48.98" y="-49.02" fill="none" rx="0" ry="0" transform="translate(377.74 189.81)"></rect><path fill="#2b4c1c" d="M510.569 238.33h-48.19q-3.69 0-8.07-1.3-4.37-1.3-8.1-4.27-3.72-2.98-6.22-7.73-2.5-4.75-2.5-11.65v-24.07q0-2.53.59-5.33.58-2.8 1.81-5.57 1.23-2.77 3.18-5.3 1.94-2.53 4.71-4.44 2.77-1.91 6.39-3.08 3.63-1.16 8.21-1.16h48.19v17.77h-48.19q-3.49 0-5.3 1.78-1.81 1.78-1.81 5.47v23.93q0 3.48 1.84 5.33 1.85 1.84 5.4 1.84h48.06Z"></path><rect width="73.08" height="73.9" x="-36.54" y="-36.95" fill="none" rx="0" ry="0" transform="translate(474.53 201.88)"></rect><path fill="#2b4c1c" d="M605.109 213.38q0 4.58-1.16 8.23-1.16 3.66-3.08 6.43-1.91 2.77-4.44 4.72-2.53 1.94-5.3 3.17-2.77 1.24-5.6 1.82-2.84.58-5.37.58h-32.06q-3.69 0-8.07-1.3-4.37-1.3-8.1-4.27-3.72-2.98-6.22-7.73-2.49-4.75-2.49-11.65v-24.07q0-6.83 2.49-11.58 2.5-4.75 6.22-7.73 3.73-2.97 8.1-4.27 4.38-1.3 8.07-1.3h32.06q6.84 0 11.62 2.46 4.79 2.46 7.73 6.19 2.94 3.72 4.27 8.1 1.33 4.37 1.33 8.13Zm-17.77-23.93q0-3.69-1.85-5.47-1.84-1.78-5.33-1.78h-31.92q-3.56 0-5.4 1.82-1.85 1.81-1.85 5.29v24.07q0 3.48 1.85 5.33 1.84 1.84 5.4 1.84h31.92q3.62 0 5.4-1.84 1.78-1.85 1.78-5.33Z"></path><rect width="81.89" height="73.9" x="-40.95" y="-36.95" fill="none" rx="0" ry="0" transform="translate(564.66 201.88)"></rect><path fill="#2b4c1c" d="M701.019 229.37q0 1.92-.68 3.56-.69 1.64-1.88 2.83-1.2 1.2-2.81 1.88-1.6.69-3.45.69h-40.19q-3.28 0-7.01-.75-3.73-.76-7.35-2.43-3.62-1.68-7.01-4.24-3.38-2.56-5.91-6.22-2.53-3.66-4.07-8.44-1.53-4.79-1.53-10.8v-41.02h17.77v41.02q0 3.48 1.2 6.25 1.19 2.77 3.24 4.75 2.05 1.98 4.82 3.04 2.77 1.06 5.98 1.06h31.11v-56.12h17.77Z"></path><rect width="81.89" height="73.9" x="-40.95" y="-36.95" fill="none" rx="0" ry="0" transform="translate(660.57 201.88)"></rect><path fill="#2b4c1c" d="M784.899 182.2h-31.04v56.13h-17.98V182.2h-23.1v-17.77h23.1V140.3h17.98v24.13h31.04Z"></path><rect width="72.12" height="98.03" x="-36.06" y="-49.02" fill="none" rx="0" ry="0" transform="translate(749.34 189.81)"></rect><path fill="#2b4c1c" d="M289.119 140.565a2.99 2.99 0 0 0 4.2-.573 2.999 2.999 0 0 0-.569-4.2l-14.093-10.711v-21.73l10.462 7.952a3.004 3.004 0 0 0 4.2-.573 2.999 2.999 0 0 0-.569-4.201l-15.277-11.607c-.13-.1-.28-.144-.42-.22-.111-.062-.213-.128-.333-.176a2.987 2.987 0 0 0-2.126 0c-.12.048-.222.117-.333.177-.14.072-.29.123-.42.219l-15.277 11.607a2.999 2.999 0 0 0 3.631 4.774l10.462-7.952v21.73l-14.093 10.71a2.999 2.999 0 0 0 3.631 4.771l10.462-7.949v21.727l-14.093 10.708a2.999 2.999 0 0 0 3.631 4.77l10.462-7.949v50.6a2.999 2.999 0 1 0 5.997 0v-50.597l10.462 7.95a2.99 2.99 0 0 0 4.2-.573 2.999 2.999 0 0 0-.569-4.201l-14.093-10.708v-21.727zm-53.634 13.775v-21.73l10.464 7.949a2.984 2.984 0 0 0 4.201-.576 2.993 2.993 0 0 0-.572-4.198l-14.09-10.704v-21.733l10.461 7.952a3.004 3.004 0 0 0 4.201-.573 2.999 2.999 0 0 0-.57-4.201l-14.092-10.708v-21.73l10.461 7.952a3.004 3.004 0 0 0 4.201-.572 2.999 2.999 0 0 0-.57-4.201l-15.277-11.608c-.129-.098-.279-.143-.42-.218-.11-.063-.212-.13-.332-.177a2.954 2.954 0 0 0-2.126 0c-.12.045-.222.114-.333.177-.141.072-.291.123-.42.218l-15.277 11.608a2.999 2.999 0 0 0 3.63 4.773l10.463-7.952v21.73l-14.093 10.708a2.999 2.999 0 0 0 3.63 4.774l10.463-7.952v21.733l-14.09 10.704a2.993 2.993 0 0 0-.573 4.198 2.99 2.99 0 0 0 4.198.573l10.465-7.949v21.727l-14.093 10.708a2.999 2.999 0 0 0 3.63 4.77l10.463-7.949v50.603a2.999 2.999 0 1 0 5.997 0v-50.597l10.461 7.95a2.99 2.99 0 0 0 4.201-.573 2.999 2.999 0 0 0-.57-4.201zm-195.65-43.037a2.999 2.999 0 1 0 3.629-4.774L29.37 95.821v-21.73l10.465 7.952a2.999 2.999 0 1 0 3.628-4.773L28.186 65.662c-.129-.098-.279-.146-.42-.218-.11-.063-.21-.13-.33-.177a2.954 2.954 0 0 0-2.125 0c-.123.045-.222.114-.333.177-.138.072-.288.123-.417.218L9.284 77.27a2.999 2.999 0 1 0 3.628 4.773l10.465-7.952v21.73L9.284 106.53a2.999 2.999 0 1 0 3.628 4.774l10.465-7.952v21.73L9.284 135.79a2.999 2.999 0 1 0 3.628 4.771l10.465-7.949v21.724L9.284 165.045a2.999 2.999 0 1 0 3.628 4.77l10.465-7.949v50.603a2.999 2.999 0 1 0 5.997 0v-50.6l10.465 7.95a2.99 2.99 0 0 0 4.2-.573 2.999 2.999 0 0 0-.572-4.201l-14.093-10.708v-21.724l10.465 7.949a2.99 2.99 0 0 0 4.2-.573 2.999 2.999 0 0 0-.572-4.2l-14.093-10.711v-21.73z"></path><path fill="#2b4c1c" d="M47.365 123.543a3.001 3.001 0 0 1-1.886-5.332l61.469-49.694a3.018 3.018 0 0 1 2.905-.489l49.458 17.913 71.394-52.767a2.996 2.996 0 0 1 3.58.012l58.726 43.982a3.001 3.001 0 0 1-3.595 4.8l-56.942-42.641-70.89 52.395c-.81.594-1.86.75-2.807.408l-49.376-17.883-60.153 48.63a2.993 2.993 0 0 1-1.883.666m138.306 48.476a2.993 2.993 0 0 1-2.516-4.623l4.944-7.665-4.944-7.658a2.99 2.99 0 0 1 0-3.253l4.947-7.667-4.95-7.682a3.007 3.007 0 0 1 0-3.25l5.997-9.308a3.001 3.001 0 0 1 5.043 3.25l-4.95 7.682 4.95 7.683a2.999 2.999 0 0 1-.003 3.25l-4.944 7.667 4.944 7.658a2.99 2.99 0 0 1 0 3.254l-5.997 9.289a2.996 2.996 0 0 1-2.521 1.373m17.862 38.585-11.269-14.132 5.547-7.2a2.996 2.996 0 0 0-.545-4.203 2.987 2.987 0 0 0-4.204.545l-1.239 1.608v-2.483a2.999 2.999 0 1 0-5.997 0v3.658l-2.248-2.819a2.999 2.999 0 1 0-4.69 3.737l5.76 7.226-10.863 14.105a2.998 2.998 0 1 0 4.75 3.658l7.294-9.47v7.641a2.999 2.999 0 1 0 5.997 0v-6.936l7.02 8.807a2.999 2.999 0 1 0 4.687-3.742m-40.866.983-.003-.006a2.963 2.963 0 0 0-.447-.884l-34.354-47.937-.003-.003a2.987 2.987 0 0 0-1.745-1.17h-.003a2.615 2.615 0 0 0-.722-.077H73.465c-.19 0-.375.032-.561.065-.045.01-.087.006-.129.015-.126.03-.24.084-.36.13-.063.023-.123.041-.186.068a2.98 2.98 0 0 0-.413.234c-.03.024-.07.024-.1.048-.02.018-.032.042-.053.06a1.925 1.925 0 0 0-.384.357c-.084.09-.177.17-.25.273l-34.377 47.967a2.999 2.999 0 0 0 2.438 4.744h120.714a3.028 3.028 0 0 0 1.895-.678 2.975 2.975 0 0 0 1.094-2.15c.006-.06.006-.117.006-.177 0-.294-.045-.59-.132-.879m-92.2-37.748v35.635h-25.54zm5.996 0 25.538 35.635H76.463zm32.918 35.635-30.078-41.967h44.581l30.078 41.967z"></path>
</svg>
</svg>