<svg viewBox="0 0 800 500" xmlns="http://www.w3.org/2000/svg">

    <!-- Background Sky -->
    <rect width="800" height="500" fill="#1E3A5F" />

    <!-- Moon -->
    <circle cx="700" cy="80" r="40" fill="#FDF6E3" />

    <!-- Stars -->
    <circle cx="50" cy="50" r="3" fill="white"/>
    <circle cx="120" cy="90" r="2" fill="white"/>
    <circle cx="200" cy="60" r="3" fill="white"/>
    <circle cx="300" cy="40" r="2" fill="white"/>
    <circle cx="400" cy="80" r="2" fill="white"/>
    <circle cx="600" cy="50" r="3" fill="white"/>
    <circle cx="650" cy="120" r="2" fill="white"/>

    <!-- Mountains -->
    <polygon points="100,300 300,100 500,300" fill="#4E6172" />
    <polygon points="400,300 600,120 750,300" fill="#3B4C5A" />

    <!-- Snow Caps -->
    <polygon points="290,120 300,100 310,120" fill="white"/>
    <polygon points="590,140 600,120 610,140" fill="white"/>

    <!-- River -->
    <path d="M0,350 C200,400 600,250 800,350 L800,500 L0,500 Z" fill="#4682B4" />

    <!-- Grass -->
    <rect y="300" width="800" height="200" fill="#2E8B57" />

    <!-- Trees -->
    <polygon points="100,280 140,200 180,280" fill="#206020" />
    <rect x="135" y="280" width="10" height="50" fill="#8B4513" />

    <polygon points="250,270 290,190 330,270" fill="#206020" />
    <rect x="285" y="270" width="10" height="50" fill="#8B4513" />

    <polygon points="550,260 590,180 630,260" fill="#206020" />
    <rect x="585" y="260" width="10" height="50" fill="#8B4513" />

    <!-- Tent -->
    <polygon points="350,320 450,230 550,320" fill="#FF4500" />
    <polygon points="450,230 470,250 470,320 450,320" fill="#8B0000" />
    <line x1="450" y1="230" x2="470" y2="250" stroke="black" stroke-width="2" />

    <!-- Campfire -->
    <circle cx="500" cy="370" r="15" fill="orange" />
    <polygon points="480,380 520,380 500,350" fill="red" />
    <line x1="480" y1="390" x2="520" y2="390" stroke="brown" stroke-width="5" />
    <line x1="490" y1="395" x2="510" y2="395" stroke="brown" stroke-width="5" />

</svg>
